<svg version="1.1"
	 xmlns="http://www.w3.org/2000/svg" xmlns:xlink="http://www.w3.org/1999/xlink" xmlns:a="http://ns.adobe.com/AdobeSVGViewerExtensions/3.0/"
	 x="0px" y="0px" width="46.3px" height="13px" viewBox="0 0 46.3 13" enable-background="new 0 0 46.3 13" xml:space="preserve">
<defs>
</defs>
<g>
	<path fill="#FFFFFF" d="M3.3,2.4C2.9,2.7,2.7,3.1,2.7,3.5c0,0.5,0.2,0.8,0.6,1.1s1.2,0.6,2.5,0.9s2.3,0.8,2.9,1.3
		c0.7,0.6,1,1.4,1,2.5c0,1.1-0.4,2-1.2,2.7c-0.8,0.7-1.9,1-3.3,1c-2,0-3.7-0.7-5.2-2l1.3-1.6c1.3,1.1,2.6,1.7,4,1.7
		c0.7,0,1.2-0.1,1.6-0.4c0.4-0.3,0.6-0.7,0.6-1.2C7.5,9,7.3,8.6,7,8.3s-1-0.5-2-0.7C4.1,7.3,3.4,7.1,2.9,7C2.4,6.8,2,6.5,1.6,6.2
		C0.9,5.7,0.5,4.8,0.5,3.7c0-1.1,0.4-2,1.2-2.7c0.8-0.7,1.8-1,3.1-1C6.5,0,8,0.5,9.4,1.4L8.2,3.1C7.2,2.3,6,2,4.8,2
		C4.1,2,3.6,2.1,3.3,2.4z"/>
	<path fill="#FFFFFF" d="M18.4,0.3l5.5,12.6h-2.3L20.3,10h-6L13,12.9h-2.3l5.5-12.6H18.4z M19.4,8.1l-2.2-4.8l-2.1,4.8H19.4z"/>
	<path fill="#FFFFFF" d="M28.4,2.4c-0.4,0.3-0.6,0.7-0.6,1.1c0,0.5,0.2,0.8,0.6,1.1c0.4,0.3,1.2,0.6,2.5,0.9s2.3,0.8,2.9,1.3
		s1,1.4,1,2.5c0,1.1-0.4,2-1.2,2.7c-0.8,0.7-1.9,1-3.3,1c-2,0-3.7-0.7-5.2-2l1.3-1.6c1.3,1.1,2.6,1.7,4,1.7c0.7,0,1.2-0.1,1.6-0.4
		s0.6-0.7,0.6-1.2c0-0.5-0.2-0.9-0.6-1.1s-1-0.5-2-0.7S28.5,7.1,28,7c-0.5-0.2-0.9-0.4-1.3-0.7c-0.7-0.6-1.1-1.4-1.1-2.5
		c0-1.1,0.4-2,1.2-2.7c0.8-0.7,1.8-1,3.1-1c1.7,0,3.2,0.5,4.6,1.4l-1.2,1.7c-1-0.8-2.2-1.2-3.5-1.2C29.2,2,28.7,2.1,28.4,2.4z"/>
	<path fill="#FFFFFF" d="M39.9,2.4c-0.4,0.3-0.6,0.7-0.6,1.1c0,0.5,0.2,0.8,0.6,1.1c0.4,0.3,1.2,0.6,2.5,0.9s2.3,0.8,2.9,1.3
		s1,1.4,1,2.5c0,1.1-0.4,2-1.2,2.7c-0.8,0.7-1.9,1-3.3,1c-2,0-3.7-0.7-5.2-2l1.3-1.6c1.3,1.1,2.6,1.7,4,1.7c0.7,0,1.2-0.1,1.6-0.4
		s0.6-0.7,0.6-1.2c0-0.5-0.2-0.9-0.6-1.1s-1-0.5-2-0.7S40,7.1,39.5,7c-0.5-0.2-0.9-0.4-1.3-0.7c-0.7-0.6-1.1-1.4-1.1-2.5
		c0-1.1,0.4-2,1.2-2.7c0.8-0.7,1.8-1,3.1-1c1.7,0,3.2,0.5,4.6,1.4l-1.2,1.7c-1-0.8-2.2-1.2-3.5-1.2C40.7,2,40.2,2.1,39.9,2.4z"/>
</g>
</svg>
