<?xml version="1.0" standalone="no"?>
<!DOCTYPE svg PUBLIC "-//W3C//DTD SVG 1.1//EN" "http://www.w3.org/Graphics/SVG/1.1/DTD/svg11.dtd" >
<svg xmlns="http://www.w3.org/2000/svg">
<metadata>
This is a custom SVG webfont generated by Font Squirrel.
Copyright   : Copyright c 2007 by Georg All rights reserved
</metadata>
<defs>
<font id="ChunkFiveRoman" horiz-adv-x="1292" >
<font-face units-per-em="2048" ascent="1536" descent="-512" />
<missing-glyph horiz-adv-x="512" />
<glyph unicode=" "  horiz-adv-x="512" />
<glyph unicode="&#x09;" horiz-adv-x="512" />
<glyph unicode="&#xa0;" horiz-adv-x="512" />
<glyph unicode="!" horiz-adv-x="630" d="M57 209q0 84 64.5 150.5t169.5 66.5q106 0 175 -63.5t69 -153.5q0 -88 -68 -149.5t-176 -61.5q-98 0 -166 64.5t-68 146.5zM66 1042v390h489v-390l-109 -516h-270z" />
<glyph unicode="&#x22;" horiz-adv-x="1085" d="M115 1436h405l-74 -613h-256zM565 1436h406l-74 -613h-256z" />
<glyph unicode="#" horiz-adv-x="1331" d="M47 250l47 272h232l24 137h-231l47 273h231l37 213h273l-37 -213h137l37 213h272l-37 -213h191l-47 -273h-191l-24 -137h190l-47 -272h-190l-37 -209h-273l37 209h-137l-37 -209h-272l37 209h-232zM598 522h137l25 137h-137z" />
<glyph unicode="$" horiz-adv-x="1454" d="M51 0v516h381q0 -61 26.5 -103t71.5 -62.5t82 -29t78 -10.5q174 0 174 103q0 37 -58 65.5t-145.5 48t-189.5 57.5t-189 87t-145.5 141t-58.5 215q0 109 47 196t122 139t156.5 78.5t161.5 26.5q45 0 92 -6v152h131v-182q143 -55 205 -172l21 172h352v-514h-371 q0 111 -74.5 174t-187.5 63q-51 0 -96 -29.5t-45 -78.5q0 -57 84 -100.5t202.5 -81.5t237.5 -87t203 -145t84 -230q0 -115 -49 -201.5t-131 -136t-174.5 -73t-188.5 -23.5q-27 0 -72 4v-131h-131v162q-133 47 -225 154l-22 -158h-359z" />
<glyph unicode="%" horiz-adv-x="1228" d="M117 1051q0 121 59.5 196.5t155.5 75.5q113 0 169 -76t56 -211q0 -127 -56.5 -198.5t-158.5 -71.5q-104 0 -164.5 73t-60.5 212zM270 1051q0 -74 22.5 -120t49.5 -46t42 42t15 109q0 164 -69 164q-20 0 -40 -43t-20 -106zM287 6h235l424 1311h-235zM670 289 q0 121 59 196.5t156 75.5q113 0 169 -75.5t56 -211.5q0 -127 -56.5 -198.5t-158.5 -71.5q-104 0 -164.5 73t-60.5 212zM823 289q0 -74 22.5 -120t49.5 -46t42 42t15 109q0 164 -69 164q-20 0 -40 -43t-20 -106z" />
<glyph unicode="&#x26;" horiz-adv-x="1433" d="M109 344q0 -131 61 -221t156.5 -125t202 -40t203.5 21.5t159 71.5q117 -84 205 -62.5t138 83t50 116.5q-102 -59 -207 78q49 66 68 152q18 -4 84.5 -1t77.5 3l18 309h-338q0 -172 -14 -221q-12 -35 -37 -76q-74 78 -178 258q147 88 212.5 209t46 222.5t-112.5 172 t-240 70.5q-123 0 -221.5 -78t-120 -204t74.5 -285q-125 -82 -176 -142q-112 -129 -112 -311zM375.5 307.5q-15.5 102.5 142.5 257.5q113 -217 221 -340q-98 -80 -223 -50t-140.5 132.5zM584.5 1023q-15.5 62 10.5 115.5t95 53.5q86 0 94 -70q8 -80 -90 -159 q-27 -20 -59 -39q-35 37 -50.5 99z" />
<glyph unicode="'" horiz-adv-x="559" d="M74 1436h405l-73 -613h-256z" />
<glyph unicode="(" horiz-adv-x="794" d="M51 639q0 170 50.5 341t128 303t154.5 227.5t148 158.5l211 -217q-59 -74 -94 -122t-96 -156.5t-93 -243.5t-32 -291q0 -162 29.5 -301t85 -245.5t97.5 -168t103 -133.5l-211 -219q-193 174 -337 459.5t-144 607.5z" />
<glyph unicode=")" horiz-adv-x="794" d="M51 -211q61 72 103.5 133.5t97.5 168t85 245.5t30 301q0 156 -32 291t-93.5 243.5t-96 156.5t-94.5 122l211 217q72 -63 148.5 -158.5t154.5 -227.5t128 -303t50 -341q0 -322 -144 -607.5t-337 -459.5z" />
<glyph unicode="*" horiz-adv-x="1228" d="M178 1016l84 -39l193 -43l-176 -182v-58l170 -129l55 51l108 197l103 -184l63 -66l172 131l-18 74l-158 164l201 41l76 43l-66 209l-86 -4l-184 -97l45 238l-39 63h-211l-39 -61l45 -238l-182 95l-90 4z" />
<glyph unicode="+" d="M86 352v273h416v415h272v-415h416v-273h-416v-415h-272v415h-416z" />
<glyph unicode="," horiz-adv-x="557" d="M-12 -264q115 145 162 294.5t32 370.5l373 -98q6 -195 -82 -376t-250 -324z" />
<glyph unicode="-" horiz-adv-x="790" d="M96 352v273h594v-273h-594z" />
<glyph unicode="." horiz-adv-x="528" d="M31 213q0 86 63.5 159.5t168 73.5t170 -73.5t65.5 -159.5q0 -96 -62.5 -158.5t-173.5 -62.5q-98 0 -164.5 67.5t-66.5 153.5z" />
<glyph unicode="/" horiz-adv-x="823" d="M-102 -317h331l594 1814h-331z" />
<glyph unicode="0" horiz-adv-x="1226" d="M31 723q0 326 160.5 530.5t416.5 204.5q293 0 440.5 -199.5t147.5 -549.5q0 -344 -150.5 -539t-427.5 -195q-266 0 -426.5 190.5t-160.5 557.5zM436 723q0 -186 57.5 -308t124.5 -122q72 0 119 115.5t47 300.5q0 182 -51 300.5t-127 118.5q-61 2 -115.5 -113.5 t-54.5 -291.5z" />
<glyph unicode="1" horiz-adv-x="1015" d="M51 1163q8 4 42 20.5t44 21.5t39 20.5t43 27t41 31t47 39.5l48 48q28 28 55 61h364v-1160h191v-272h-820v272h205v760l-205 -96z" />
<glyph unicode="2" horiz-adv-x="1208" d="M51 0v297q82 135 140.5 201.5t158.5 146.5q47 43 150.5 111.5t158 121t54.5 109.5q0 135 -172 135q-51 0 -103.5 -29.5t-77 -53t-71.5 -72.5l-221 233q219 254 532 254q209 0 348 -123t139 -325q0 -164 -70.5 -251t-256.5 -208q-86 -55 -180.5 -136t-126.5 -139h360v164 h344v-436h-1106z" />
<glyph unicode="3" horiz-adv-x="1105" d="M31 205l209 217q133 -133 270 -133q86 0 135 41t49 116q0 150 -170 150h-153v244h149q76 0 125 36.5t49 104.5q0 78 -54 120t-126 42q-123 0 -240 -123l-198 240q66 72 188.5 133t249.5 61q248 0 385 -117.5t137 -316.5q0 -143 -151 -260q190 -137 190 -336 q0 -213 -170 -332t-397 -119q-141 0 -278.5 70t-198.5 162z" />
<glyph unicode="4" horiz-adv-x="1196" d="M20 403v293l590 736h424v-807h109v-222h-109v-133h111v-270h-664v270h129v133h-590zM307 625h303v379z" />
<glyph unicode="5" horiz-adv-x="1181" d="M31 221l223 232q147 -152 287 -152q102 0 163.5 57.5t61.5 147.5q0 82 -60.5 140.5t-148.5 58.5q-102 0 -192 -95l-263 117l125 705h811v-306h-551l-34 -198q76 49 221 49q193 0 335 -130t142 -355q0 -125 -53.5 -225.5t-141.5 -163t-195.5 -96.5t-221.5 -34 q-150 0 -296 75t-212 173z" />
<glyph unicode="6" horiz-adv-x="1189" d="M33 623q-2 96 8 191t47 213t99.5 207t178 152.5t269.5 67.5q109 4 253 -42t230 -120l-139 -266q-178 104 -299 104q-111 -2 -181.5 -80.5t-86.5 -197.5q41 41 115.5 71.5t152.5 32.5q201 8 340 -121.5t139 -334.5q0 -213 -143.5 -361.5t-386.5 -156.5q-256 -8 -422 165 t-174 476zM416 545q0 -88 50 -165t140 -77q78 0 133.5 51.5t53.5 124.5q-2 72 -42 128.5t-124 54.5q-121 -6 -211 -117z" />
<glyph unicode="7" horiz-adv-x="1159" d="M31 1026v406h1108v-273l-551 -1159h-443l549 1159h-336v-133h-327z" />
<glyph unicode="8" horiz-adv-x="1144" d="M31 420q0 102 61.5 206.5t159.5 153.5q-74 45 -114 120t-40 153q0 176 131 289.5t357 113.5q231 0 360 -113.5t129 -289.5q0 -96 -49 -170t-123 -109q100 -49 155.5 -147.5t55.5 -206.5q0 -193 -148.5 -320t-392.5 -127q-250 0 -396 126t-146 321zM385 432 q0 -72 56.5 -120t133.5 -48q80 0 133.5 44t55.5 124q0 94 -81 136t-179 46q-49 -29 -84 -79t-35 -103zM434 1069q0 -51 39 -84t79 -41t85 -10q98 47 98 135q0 55 -46 92t-107 37q-59 0 -103.5 -39t-44.5 -90z" />
<glyph unicode="9" horiz-adv-x="1202" d="M31 936q0 213 143 361.5t387 156.5q258 8 429 -166t179 -475q2 -106 -8 -205.5t-50 -215.5t-104.5 -202t-181 -145t-270.5 -63q-109 -4 -253 42t-230 119l139 267q178 -104 299 -105q117 4 184.5 76t65.5 203q-98 -98 -250 -105q-201 -8 -340 122t-139 335zM397 956 q2 -72 42 -128t124 -54q102 4 193 117q0 94 -42 168t-130 74q-78 0 -133.5 -51.5t-53.5 -125.5z" />
<glyph unicode=":" horiz-adv-x="520" d="M31 201q0 86 62.5 157.5t164.5 71.5q104 0 167.5 -72.5t63.5 -156.5q0 -92 -64.5 -154.5t-166.5 -62.5q-96 0 -161.5 66.5t-65.5 150.5zM31 823q0 86 62.5 158t164.5 72q104 0 167.5 -73t63.5 -157q0 -94 -62 -155.5t-169 -61.5q-92 0 -159.5 67.5t-67.5 149.5z" />
<glyph unicode=";" horiz-adv-x="618" d="M10 -264l236 -133q162 143 250 324.5t82 375.5l-373 98q14 -221 -33 -370.5t-162 -294.5zM121 788q0 86 63.5 160t168 74t170 -74t65.5 -160q0 -94 -63.5 -157.5t-172.5 -63.5q-94 0 -162.5 68.5t-68.5 152.5z" />
<glyph unicode="&#x3c;" horiz-adv-x="1064" d="M143 430l660 -307l78 213l-506 227l506 232l-125 229l-613 -307v-287z" />
<glyph unicode="=" horiz-adv-x="1028" d="M90 106v273h844v-273h-844zM90 559v272h844v-272h-844z" />
<glyph unicode="&#x3e;" horiz-adv-x="1064" d="M143 336l506 227l-506 232l125 229l613 -307v-287l-660 -307z" />
<glyph unicode="?" horiz-adv-x="1064" d="M4 1200q227 264 533 264q213 0 350 -109.5t137 -310.5q0 -74 -34 -136t-82 -104t-95 -77t-81 -69.5t-34 -67.5v-113h-381v164q0 63 51.5 126.5t112 105.5t111.5 90.5t51 85.5q0 96 -151 96q-61 0 -134 -49t-133 -119zM264 209q0 84 64.5 150.5t169.5 66.5 q106 0 174.5 -63.5t68.5 -153.5q0 -88 -67.5 -149.5t-175.5 -61.5q-98 0 -166 64.5t-68 146.5z" />
<glyph unicode="@" horiz-adv-x="1705" d="M121 479q0 125 47 253t135 236.5t230.5 177t316.5 68.5t317.5 -68.5t232.5 -177t137 -236.5t48 -253q0 -137 -37 -232t-94 -136t-127 -54.5t-136.5 2t-118.5 44t-77 63.5l-32 59q-51 -86 -179 -86q-104 0 -181 57.5t-77 163.5q0 113 78 178.5t195 65.5q82 0 129 -47v47 q0 74 -125 74q-84 0 -195 -62l-55 152q147 96 289 96q88 0 163.5 -22.5t134 -86t58.5 -163.5v-258q4 -61 57 -94q63 -41 105 34q35 66 35 205q0 94 -36 189.5t-100.5 177.5t-172 133t-236.5 51q-170 0 -297 -88t-184.5 -211t-57.5 -252q0 -213 155 -368.5t394 -151.5v-184 q-322 -2 -530.5 208.5t-208.5 495.5zM776 373q0 -27 19.5 -43.5t50.5 -16.5q27 0 52.5 13.5t29.5 29.5v47l-4 7q-4 8 -8.5 12t-12.5 10t-22.5 9t-30.5 3q-74 1 -74 -71z" />
<glyph unicode="A" horiz-adv-x="1685" d="M31 0v268h139l276 899h-84v265h787l362 -1164h144v-268h-821v268h194l-43 140h-420l-43 -140h160v-268h-651zM641 653h268l-135 443z" />
<glyph unicode="B" horiz-adv-x="1406" d="M51 0v266h119v901h-119v265h764q502 0 502 -351q0 -131 -44 -201.5t-157 -115.5q121 -33 195.5 -120t74.5 -228q0 -217 -131 -316.5t-426 -99.5h-778zM594 266h164q68 0 117 48t49 128t-45 130.5t-127 50.5h-158v-357zM594 854h125q78 0 108.5 40t30.5 118 q0 70 -38 109.5t-97 39.5h-129v-307z" />
<glyph unicode="C" horiz-adv-x="1404" d="M31 702q0 168 59.5 314.5t151.5 240t200.5 146.5t210.5 53q211 0 316 -139l47 115h321v-582h-366q-4 109 -59.5 183.5t-157.5 74.5q-109 0 -176.5 -117t-67.5 -289q0 -162 80 -273.5t219 -111.5q31 0 62.5 8.5t58 20.5t53.5 29.5t46.5 34t40 36t30.5 31.5t22 27l13 14 l239 -262q-262 -289 -620 -289q-328 0 -525.5 197.5t-197.5 537.5z" />
<glyph unicode="D" horiz-adv-x="1474" d="M51 0v272h127v889h-127v271h625q362 0 570 -197t208 -500q0 -350 -205 -542.5t-581 -192.5h-617zM598 272h78q156 2 231.5 130t75.5 333q0 180 -77 303t-230 123h-78v-889z" />
<glyph unicode="E" horiz-adv-x="1337" d="M51 0v272h129v889h-129v271h1235v-453h-354v182h-328v-282h389v-273h-389v-334h328v191h354v-463h-1235z" />
<glyph unicode="F" horiz-adv-x="1306" d="M51 0v272h127v889h-127v271h1225v-453h-363v182h-309v-356h389v-273h-389v-260h209v-272h-762z" />
<glyph unicode="G" horiz-adv-x="1589" d="M31 702q0 324 189.5 539t438.5 215q70 0 130.5 -11t98.5 -25.5t70.5 -37t48 -38t32 -36t20.5 -24.5l43 148h305v-605h-367q-4 121 -71.5 190.5t-161.5 69.5q-121 0 -201 -113.5t-80 -271.5q0 -162 76 -269t205 -107q139 0 197 100v86h-125v219h680v-219h-82v-512h-410 l-63 129q-37 -61 -127.5 -104t-202.5 -43q-274 0 -458.5 197t-184.5 523z" />
<glyph unicode="H" horiz-adv-x="1572" d="M51 0v270h113v891h-113v271h664v-271h-127v-309h389v309h-121v271h666v-271h-119v-891h119v-270h-666v270h121v310h-389v-310h127v-270h-664z" />
<glyph unicode="I" horiz-adv-x="782" d="M51 0v272h129v889h-129v271h680v-271h-127v-889h127v-272h-680z" />
<glyph unicode="J" horiz-adv-x="948" d="M41 -125q41 -18 92 -18q170 0 170 295v1011h-176v269h770v-269h-170v-1011q0 -283 -135 -426.5t-442 -143.5q-49 0 -109 23v270z" />
<glyph unicode="K" horiz-adv-x="1669" d="M51 0v266h111v901h-111v265h645v-265h-110v-333l381 333h-148v265h682v-265h-119l-297 -256l414 -645h119v-266h-799v266h139l-221 348l-151 -129v-219h110v-266h-645z" />
<glyph unicode="L" horiz-adv-x="1249" d="M51 0v272h113v889h-113v271h647v-271h-108v-889h264v260h344v-532h-1147z" />
<glyph unicode="M" horiz-adv-x="2064" d="M51 0v264h111v903h-109v265h776l207 -766l197 766h780v-265h-112v-901h112v-266h-647v266h115v684v121h-8q-35 -190 -60 -274l-215 -797h-428l-229 817q-35 119 -43 254h-9v-807h117v-264h-555z" />
<glyph unicode="N" horiz-adv-x="1671" d="M51 0v264h121v903h-119v265h588l502 -752v487h-139v265h616v-265h-135v-1167h-441l-522 780v-516h158v-264h-629z" />
<glyph unicode="O" horiz-adv-x="1515" d="M31 723q0 332 200.5 539.5t518.5 207.5q367 0 551 -202.5t184 -558.5q0 -350 -188.5 -548t-532.5 -198q-334 0 -533.5 193.5t-199.5 566.5zM537 723q0 -199 63.5 -318.5t163.5 -119.5q96 0 152.5 115.5t56.5 308.5q0 199 -56.5 322.5t-168.5 123.5h-4q-92 0 -149 -120 q-58 -122 -58 -312z" />
<glyph unicode="P" horiz-adv-x="1310" d="M51 0v270h115v893h-115v269h664q172 0 287.5 -34t174 -99.5t81 -137t22.5 -168.5q0 -195 -153.5 -300t-385.5 -105h-155v-318h125v-270h-660zM586 809h92q90 0 145.5 45t55.5 125q0 90 -50.5 138t-140.5 48h-102v-356z" />
<glyph unicode="Q" horiz-adv-x="1546" d="M31 725q0 315 190.5 514t497.5 199q350 0 525 -193.5t175 -533.5q0 -326 -170 -512q35 -133 90 -133q41 0 41 92v59h136v-104q0 -143 -80 -235.5t-228 -92.5q-119 0 -199.5 64.5t-117.5 162.5q-74 -12 -160 -12q-319 0 -509.5 186.5t-190.5 538.5zM481 725q0 -66 8 -113 q94 98 242 99q119 0 230 -80q4 49 4 80q0 182 -69 305t-179 123h-3q-92 0 -162 -118q-71 -120 -71 -296zM594 375q61 -68 137 -68q57 0 109 45q-12 86 -36 129t-73 43q-84 1 -137 -149z" />
<glyph unicode="R" horiz-adv-x="1509" d="M51 0v270h115v893h-115v269h666q172 0 287.5 -32t175 -93.5t82 -131t22.5 -165.5q0 -117 -83 -198t-214 -99q109 -16 188.5 -99.5t79.5 -191.5q0 -139 50 -139q47 0 47 65v68h137v-113q0 -143 -70.5 -235.5t-228.5 -92.5q-199 0 -298 99.5t-99 281.5q0 143 -36 187.5 t-169 44.5v-318h125v-270h-662zM588 817h92q90 0 143.5 43t53.5 123q0 182 -187 182h-102v-348z" />
<glyph unicode="S" horiz-adv-x="1454" d="M51 0v516h381q0 -61 26.5 -103t71.5 -62.5t82 -29t78 -10.5q174 0 174 103q0 37 -58 65.5t-145.5 48t-189.5 57.5t-189 87t-145.5 141t-58.5 215q0 109 47 196t122 139t156.5 78.5t161.5 26.5q317 0 428 -208l21 172h352v-514h-371q0 111 -74.5 174t-187.5 63 q-51 0 -96 -29.5t-45 -78.5q0 -57 84 -100.5t202.5 -81.5t237.5 -87t203 -145t84 -230q0 -115 -49 -201.5t-131 -136t-174.5 -73t-188.5 -23.5q-268 0 -428 189l-22 -158h-359z" />
<glyph unicode="T" horiz-adv-x="1435" d="M31 899v533h1374v-533h-301v262h-172v-889h170v-272h-762v272h168v889h-176v-262h-301z" />
<glyph unicode="U" horiz-adv-x="1509" d="M31 1165v267h651v-265h-111v-442q0 -233 49.5 -316t155.5 -83q70 0 111 25.5t68.5 116.5t27.5 259v434h-111v271h607v-265h-111v-497q0 -705 -588 -705q-635 18 -635 694v506h-114z" />
<glyph unicode="V" horiz-adv-x="1583" d="M-20 1165v267h753v-267h-110l174 -458q59 -180 63 -248h10q6 92 74 260l186 446h-108v267h582v-267h-101l-491 -1165h-377l-543 1165h-112z" />
<glyph unicode="W" horiz-adv-x="2078" d="M-20 1165v267h675v-267h-118l53 -299q29 -123 65 -403h11q4 47 100 508l102 461h426l129 -566q39 -182 62 -403h10q16 178 61 391l70 311h-113v267h586v-267h-112l-306 -1165h-485l-123 487q-27 98 -51 254h-8q-14 -102 -49 -249l-125 -492h-475l-271 1165h-114z" />
<glyph unicode="X" horiz-adv-x="1710" d="M51 0v264h178l301 391l-370 510h-107v267h811v-267h-119l201 -272l209 272h-180v267h680v-267h-174l-310 -395l369 -504h119v-266h-817v266h116l-155 209l-43 57l-211 -268h182v-264h-680z" />
<glyph unicode="Y" horiz-adv-x="1370" d="M-20 1169v263h700v-263h-107l119 -217q6 -16 33 -81.5t31 -84.5h8q4 18 76 177l112 206h-112v263h551v-263h-111l-379 -665v-238h115v-266h-656v266h117v242l-397 661h-100z" />
<glyph unicode="Z" horiz-adv-x="1462" d="M51 0v266l746 893h-385v-266h-349v539h1344l4 -273l-749 -889h380v262h363v-532h-1354z" />
<glyph unicode="[" horiz-adv-x="794" d="M283 -430v2097h512v-268h-123v-1561h121v-268h-510z" />
<glyph unicode="\" horiz-adv-x="823" d="M0 1497h332l594 -1814h-332z" />
<glyph unicode="]" horiz-adv-x="794" d="M0 1399h123v-1561h-121v-268h510v2097h-512v-268z" />
<glyph unicode="_" d="M86 -90h1104v-111h-1104v111z" />
<glyph unicode="a" horiz-adv-x="1228" d="M31 303q0 170 124 273.5t302 103.5q55 0 103 -16.5t69.5 -31t29.5 -24.5v72q0 115 -194 115q-135 0 -305 -95l-86 238q242 145 446 145q100 0 191.5 -20.5t176.5 -65.5t136 -132t51 -203v-400h123v-262h-438l-49 92q-51 -70 -129 -100.5t-148 -30.5q-162 0 -282.5 88 t-120.5 254zM420 324q0 -43 30.5 -70t77.5 -27q43 0 79 20.5t52 47.5v78q-35 59 -120 59q-119 1 -119 -108z" />
<glyph unicode="b" horiz-adv-x="1343" d="M63 0v266h87v1002h-87v268h496v-592q33 39 113 67.5t155 28.5q223 0 350 -158q122 -154 122 -364q0 -7 -1 -14q-4 -240 -131 -383.5t-342 -143.5q-74 0 -128 14.5t-80.5 31t-61.5 47.5l-31 -70h-461zM555 489q0 -102 44 -173.5t103 -71.5q66 0 106 69.5t40 186.5 q0 98 -41 175t-107 77q-63 0 -107 -73q-39 -64 -39 -162q0 -14 1 -28z" />
<glyph unicode="c" horiz-adv-x="1087" d="M2 518q0 256 145.5 390t358.5 134q158 0 256 -116l35 98h241v-463h-301q-4 88 -34.5 151.5t-94.5 63.5q-86 0 -133 -76.5t-47 -185.5q0 -102 57.5 -171t153.5 -71h5q136 0 243 117l180 -209q-80 -88 -213 -148.5t-289 -60.5q-240 0 -401.5 143.5t-161.5 403.5z" />
<glyph unicode="d" horiz-adv-x="1298" d="M20 522q0 231 139.5 376.5t336.5 145.5q135 0 258 -77v303h-95v266h510v-1270h99v-266h-480l-34 76q-102 -94 -258 -94q-211 0 -343.5 159.5t-132.5 380.5zM461 522q0 -98 41 -175t106 -77q63 0 108 73q39 64 38 162v27q0 102 -44 174t-104 72q-66 0 -105.5 -69.5 t-39.5 -186.5z" />
<glyph unicode="e" horiz-adv-x="1110" d="M10 518q0 246 156 390.5t395 144.5q180 0 312.5 -83t177.5 -214q23 -66 27 -156q1 -14 1 -27q0 -78 -24 -163h-645q6 -31 14 -51.5t29.5 -52.5t64.5 -48t103 -16q168 0 286 98l172 -199q-207 -178 -528 -178q-215 0 -378 141.5t-163 413.5zM416 612h309q-2 74 -32.5 119 t-119.5 45q-82 0 -117.5 -53.5t-39.5 -110.5z" />
<glyph unicode="f" horiz-adv-x="790" d="M51 758v266h84v174q0 43 6 84t31 97.5t66 96.5t119.5 68.5t183.5 28.5q80 0 170 -15.5t131 -35.5l-123 -236q-45 20 -113 21q-66 0 -65 -109v-174h186v-266h-186v-490h123v-268h-611v268h82v490h-84z" />
<glyph unicode="g" horiz-adv-x="1310" d="M20 518q0 244 133.5 385t381.5 141q63 0 123.5 -25.5t93.5 -57.5l41 63h487v-268h-123v-613q0 -262 -161.5 -411.5t-477.5 -151.5q-152 2 -272.5 56.5t-196.5 123.5l109 228q49 -43 151.5 -87t204.5 -44q125 0 181.5 57t56.5 135v70q-88 -113 -240 -113 q-246 0 -369 148.5t-123 363.5zM457 522q0 -98 41 -175t106 -77q63 0 108 73q39 64 38 162v27q0 102 -44 174t-104 72q-66 0 -105.5 -69.5t-39.5 -186.5z" />
<glyph unicode="h" horiz-adv-x="1353" d="M51 0v268h86v1002h-86v266h496v-639q25 41 124 102.5t197 61.5q113 0 189 -38t110.5 -108.5t47 -140t12.5 -164.5v-342h96v-268h-526v557q0 39 -2 61.5t-12.5 57.5t-37 53.5t-69.5 18.5q-129 0 -129 -191v-289h147v-268h-643z" />
<glyph unicode="i" horiz-adv-x="675" d="M51 0v268h86v490h-86v266h475v-756h99v-268h-574zM109 1323q0 78 60 143.5t160.5 65.5t163 -65.5t62.5 -143.5q0 -88 -60.5 -147.5t-164.5 -59.5q-92 0 -156.5 64.5t-64.5 142.5z" />
<glyph unicode="j" horiz-adv-x="737" d="M29 -154q68 0 114.5 24t69.5 51.5t35 77.5t13 74.5t1 69.5v615h-86v266h475v-881q0 -86 -12 -157.5t-51 -151.5t-104.5 -135t-181.5 -91t-273 -36v274zM233 1323q0 78 60.5 143.5t161 65.5t163 -65.5t62.5 -143.5q0 -88 -60.5 -147.5t-164.5 -59.5q-92 0 -157 64.5 t-65 142.5z" />
<glyph unicode="k" horiz-adv-x="1339" d="M78 0v266h84v1002h-84v268h473v-926l237 142h-147v270h573v-270h-157l-139 -88l276 -396h102v-268h-606v268h86l-155 221l-72 -49v-172h76v-268h-547z" />
<glyph unicode="l" horiz-adv-x="679" d="M51 0v268h88v1004h-86v264h475v-1268h121v-268h-598z" />
<glyph unicode="m" horiz-adv-x="1859" d="M51 0v268h86v484h-86v270h387l45 -121q125 150 256 150q72 0 128.5 -14.5t92 -42t51 -46t33.5 -45.5q131 147 302 148q119 0 198.5 -40t117.5 -115t52.5 -152.5t14.5 -184.5v-283h100v-276h-520v502q0 12 1 44t1 50t-2 46t-7.5 45.5t-13.5 34.5t-22.5 25.5t-34.5 8.5 q-61 0 -85 -38t-24 -112v-332h123v-274h-530v522q0 137 -14.5 185.5t-71.5 48.5q-92 0 -92 -123v-365h122v-268h-608z" />
<glyph unicode="n" horiz-adv-x="1325" d="M51 0v268h86v490h-86v266h436l48 -127q119 164 292 164q92 0 161 -26.5t108 -68.5t62.5 -104.5t31.5 -121t8 -130.5v-342h96v-268h-516v559v48q0 11 -5 47t-16.5 50.5t-35 30t-57.5 15.5q-129 0 -129 -191v-291h147v-268h-631z" />
<glyph unicode="o" horiz-adv-x="1175" d="M191 904q167 144 393 145q250 -4 407.5 -147.5t161.5 -393.5v-6q0 -243 -158 -385q-160 -143 -401 -144q-238 0 -406 143q-166 141 -165 394q-1 248 168 394zM442 514q0 -125 43 -201.5t109 -76.5q63 0 101 76.5t38 195.5t-40 195.5t-109 78.5q-59 0 -100.5 -77.5 t-41.5 -190.5z" />
<glyph unicode="p" horiz-adv-x="1306" d="M51 -150h86v902h-86v272h469l35 -72q119 88 248 88q229 0 356 -153.5t127 -382.5q0 -240 -132 -383.5t-335 -143.5q-172 0 -266 80v-207h111v-268h-613v268zM553 489q0 -102 44 -173.5t103 -71.5q66 0 106 69.5t40 186.5q0 98 -41 175t-107 77q-63 0 -107 -73 q-39 -64 -39 -162q0 -14 1 -28z" />
<glyph unicode="q" horiz-adv-x="1351" d="M51 518q0 256 137.5 391t352.5 135q88 0 155.5 -27.5t87.5 -53.5l39 61h477v-266h-100v-955h100v-274h-649v268h133v271q-104 -86 -262 -86q-201 0 -336 147t-135 389zM492 516q0 -102 44 -174t103 -72q66 0 105.5 70t39.5 186q0 98 -41 175t-106 77q-63 0 -108 -72 q-39 -64 -38 -162q0 -14 1 -28z" />
<glyph unicode="r" horiz-adv-x="847" d="M51 0v268h90v490h-88v266h385l62 -131q25 45 44 70.5t54 55.5t89 43t130 13v-368q-147 0 -218 -49.5t-71 -178.5v-211h103v-268h-580z" />
<glyph unicode="s" horiz-adv-x="1040" d="M31 0v369h274q0 -49 44 -83t89 -44.5t84 -10.5q90 0 90 70q0 18 -16 31.5t-48 24t-65.5 19.5t-84 22.5t-87.5 25.5q-272 96 -272 328q0 143 115.5 220t244.5 77q102 0 187.5 -46.5t118.5 -113.5l16 135h252v-369h-266q0 63 -64.5 109.5t-144.5 46.5t-80 -74 q0 -16 12 -29.5t41 -26.5t51.5 -21.5t72.5 -25t75 -24.5q80 -27 120.5 -45t98 -56t84 -94.5t26.5 -131.5q0 -139 -112.5 -223.5t-268.5 -84.5q-104 0 -189 43t-124 107l-18 -125h-256z" />
<glyph unicode="t" horiz-adv-x="743" d="M31 758v266h110v188l377 121v-309h195v-266h-195v-365q0 -8 -1 -29.5t0 -34t2 -29.5t5 -27.5t11.5 -21.5t19.5 -16.5t29 -5.5q47 0 129 35v-262q-41 -16 -122 -27.5t-126 -11.5q-90 0 -150.5 21.5t-94.5 52.5t-51 94.5t-21.5 114.5t-6.5 147v365h-110z" />
<glyph unicode="u" d="M31 754v270h495v-494q0 -135 24.5 -196.5t86.5 -61.5q55 0 92 44t37 112v326h-135v270h530v-752h101v-272h-388l-55 129l-20 -23q-20 -25 -27.5 -31.5t-30 -28t-41 -30t-45 -21.5t-58.5 -18.5t-69 -5.5q-227 0 -319 119t-92 381v283h-86z" />
<glyph unicode="v" horiz-adv-x="1255" d="M0 764v260h623v-260h-103l94 -217q45 -133 54 -215h8q4 94 61 225l99 207h-109v260h528v-260h-106l-354 -764h-318l-381 764h-96z" />
<glyph unicode="w" horiz-adv-x="1785" d="M0 758v266h551v-266h-70l45 -150q41 -139 52 -295h4q20 268 84 482l65 229h379l78 -266q59 -188 88 -445h4q18 193 55 324l35 121h-84v266h500v-266h-84l-240 -758h-432l-141 463l-148 -463h-422l-231 758h-88z" />
<glyph unicode="x" horiz-adv-x="1329" d="M41 0v254h137l209 235l-254 279h-92v256h664v-256h-97l144 -156l153 156h-137v256h522v-256h-135l-217 -219l258 -295h96v-254h-653v254h96l-155 166l-148 -166h133v-254h-524z" />
<glyph unicode="y" horiz-adv-x="1187" d="M-18 762v262h630v-260h-96l133 -320l133 320h-94v260h520v-254h-98l-389 -946q-23 -49 -40 -80t-54 -76t-80 -70.5t-111.5 -44t-154.5 -18.5q-139 8 -248 103l153 241q68 -59 119 -69q9 -2 18 -2q34 0 62 26q35 33 51 84l29 86l-399 758h-84z" />
<glyph unicode="z" horiz-adv-x="1132" d="M51 0v268l494 492h-228v-146h-266v410h1014v-264l-487 -492h215v140h288v-408h-1030z" />
<glyph unicode="{" horiz-adv-x="921" d="M51 639q137 201 160 293q23 88 22.5 196.5t-3.5 181t14.5 147.5t87 127t200.5 85l211 -217q-115 -27 -170 -64.5t-57 -85t7 -106.5t23.5 -128t-5.5 -153q-18 -82 -113 -276q70 -176 84 -252q18 -92 4 -167t-21.5 -140.5t0 -116.5t68 -95t180.5 -77l-211 -219 q-123 39 -197.5 92t-103 112.5t-39 130t-2 145.5t5.5 160t-16 171q-8 37 -39.5 100.5t-60.5 110.5z" />
<glyph unicode="|" horiz-adv-x="819" d="M313 -207v1882h191v-1882h-191z" />
<glyph unicode="}" horiz-adv-x="921" d="M236 -209l210 -219q123 39 198 92t103.5 112.5t39 130t2 145.5t-5.5 160t16 171q8 37 39.5 100.5t60.5 110.5l29 45q-137 201 -160 293q-23 88 -23 196.5t3.5 181t-14 147.5t-87 127t-201.5 85l-210 -217q115 -27 170 -64.5t57 -85t-7.5 -106.5t-23.5 -128t6 -153 q18 -82 113 -276q-70 -176 -84 -252q-18 -92 -4 -167t21.5 -140.5t0 -116.5t-67.5 -95t-181 -77z" />
<glyph unicode="~" horiz-adv-x="819" d="M0 406q57 55 163.5 70.5t221.5 -27.5q92 -45 234.5 -44t195.5 64v223q-47 -57 -152.5 -78.5t-228.5 23.5q-113 55 -243 51t-191 -59v-223z" />
<glyph unicode="&#xa3;" horiz-adv-x="1454" d="M20 772v102h250q-66 178 4 365q74 199 269.5 295t430 67.5t425.5 -169.5v-332q-88 76 -221.5 130t-272.5 52t-200 -92q-31 -43 -35 -98.5t9 -102.5t42 -115h459v-102h-414q41 -94 59.5 -161.5t11 -162t-58.5 -176.5h264v260h344v-532h-1146v272h112q23 37 37 75 t22.5 65.5t3.5 67.5t-5 57.5t-17.5 62.5t-21.5 55.5t-30 60.5t-28 56h-293z" />
<glyph unicode="&#xa5;" horiz-adv-x="1370" d="M-25 362v103h502v43l-71 121h-431v102h369l-264 438h-100v263h700v-263h-107l119 -217q6 -16 33 -81.5t31 -84.5h8q4 18 76 177l112 206h-112v263h551v-263h-111l-250 -438h371v-102h-428l-72 -125v-39h500v-103h-500v-96h115v-266h-656v266h117v96h-502z" />
<glyph unicode="&#xa9;" horiz-adv-x="1705" d="M100 664q0 98 31 200.5t94.5 198.5t151.5 171t211 120t262 45q174 0 320.5 -68.5t239.5 -177.5t144.5 -237t51.5 -252q0 -315 -200 -520t-556 -205q-317 0 -533.5 221t-216.5 504zM291 664q0 -211 161.5 -376t397.5 -165q266 0 415.5 152.5t149.5 388.5 q0 203 -156.5 376.5t-408.5 173.5q-170 0 -302 -88t-194.5 -210.5t-62.5 -251.5zM457 662q0 182 103.5 276t254.5 94q111 0 182 -84l23 72h172v-330h-213q-2 61 -23.5 106.5t-66.5 45.5q-61 0 -96 -55.5t-35 -129t42 -124t111 -50.5q98 0 176 82l127 -145 q-57 -63 -152 -107.5t-206 -44.5q-170 0 -284.5 103t-114.5 291z" />
<glyph unicode="&#xaa;" horiz-adv-x="1228" d="M31 303q0 170 124 273.5t302 103.5q55 0 103 -16.5t69.5 -31t29.5 -24.5v72q0 115 -194 115q-135 0 -305 -95l-86 238q242 145 446 145q100 0 191.5 -20.5t176.5 -65.5t136 -132t51 -203v-400h123v-262h-438l-49 92q-51 -70 -129 -100.5t-148 -30.5q-162 0 -282.5 88 t-120.5 254zM420 324q0 -43 30.5 -70t77.5 -27q43 0 79 20.5t52 47.5v78q-35 59 -120 59q-119 1 -119 -108z" />
<glyph unicode="&#xab;" horiz-adv-x="1433" d="M154 430l557 -512l77 213l-403 432l403 436l-124 230l-510 -512v-287zM645 430l557 -512l78 213l-403 432l403 436l-125 230l-510 -512v-287z" />
<glyph unicode="&#xad;" horiz-adv-x="790" d="M96 352v273h594v-273h-594z" />
<glyph unicode="&#xae;" horiz-adv-x="1705" d="M100 664q0 98 31 200.5t94.5 198.5t151.5 171t211 120t262 45q174 0 320.5 -68.5t239.5 -177.5t144.5 -237t51.5 -252q0 -315 -200 -520t-556 -205q-317 0 -533.5 221t-216.5 504zM291 664q0 -211 161.5 -376t397.5 -165q266 0 415.5 152.5t149.5 388.5 q0 203 -156.5 376.5t-408.5 173.5q-170 0 -302 -88t-194.5 -210.5t-62.5 -251.5zM510 270v142h63v473h-63v145h356q174 0 236.5 -58.5t62.5 -166.5q0 -61 -44 -102t-113 -52q59 -16 101 -59t42 -98q0 -76 27 -76q23 0 22 35v36h76v-61q0 -76 -38 -125t-122 -49 q-203 0 -203 203q0 76 -22.5 100.5t-95.5 24.5v-170h67v-142h-352zM795 702h49q106 0 106 89q0 96 -102 96h-53v-185z" />
<glyph unicode="&#xb1;" d="M184 37v223h908v-223h-908zM184 711v223h342v340h224v-340h342v-223h-342v-344h-224v344h-342z" />
<glyph unicode="&#xb2;" horiz-adv-x="819" d="M127 647v160q45 72 74.5 106.5t83.5 75.5q23 18 80 57t84.5 67t27.5 58q0 72 -94 72q-27 0 -54.5 -15.5t-38.5 -27.5t-38 -39l-119 125q123 135 283 135q113 0 186.5 -66.5t73.5 -172.5q0 -88 -37 -133t-135 -111q-133 -86 -166 -145h192v88h183v-234h-586z" />
<glyph unicode="&#xb3;" horiz-adv-x="819" d="M133 772l109 115q82 -70 147 -70q96 0 96 82t-96 82h-78v127h78q43 0 69.5 20.5t26.5 55.5q0 41 -29.5 63.5t-66.5 22.5q-66 0 -127 -66l-106 129q35 37 100.5 69t132.5 32q131 0 204 -61.5t73 -168.5q0 -74 -80 -137q100 -76 100 -178q0 -115 -89 -177.5t-208 -62.5 q-78 0 -150.5 37t-105.5 86z" />
<glyph unicode="&#xb9;" horiz-adv-x="1015" d="M51 1163q8 4 42 20.5t44 21.5t39 20.5t43 27t41 31t47 39.5l48 48q28 28 55 61h364v-1160h191v-272h-820v272h205v760l-205 -96z" />
<glyph unicode="&#xba;" horiz-adv-x="1175" d="M191 904q167 144 393 145q250 -4 407.5 -147.5t161.5 -393.5v-6q0 -243 -158 -385q-160 -143 -401 -144q-238 0 -406 143q-166 141 -165 394q-1 248 168 394zM442 514q0 -125 43 -201.5t109 -76.5q63 0 101 76.5t38 195.5t-40 195.5t-109 78.5q-59 0 -100.5 -77.5 t-41.5 -190.5z" />
<glyph unicode="&#xbb;" horiz-adv-x="1433" d="M154 131l403 432l-403 436l125 230l509 -512v-287l-557 -512zM645 131l404 432l-404 436l125 230l510 -512v-287l-557 -512z" />
<glyph unicode="&#xbf;" horiz-adv-x="1064" d="M4 -94q0 74 34 136t82 104t95 77t81 70t34 67v113h381v-164q0 -63 -51.5 -126.5t-112 -105.5t-111.5 -90t-51 -85q0 -96 152 -97q61 0 133.5 49.5t132.5 118.5l221 -223q-227 -264 -532 -264q-213 0 -350.5 109.5t-137.5 310.5zM287 741q0 88 67.5 149.5t175.5 61.5 q98 0 166 -64.5t68 -146.5q0 -84 -64.5 -150.5t-169.5 -66.5q-106 0 -174.5 63.5t-68.5 153.5z" />
<glyph unicode="&#xc0;" horiz-adv-x="1685" d="M31 0v268h139l276 899h-84v265h787l362 -1164h144v-268h-821v268h194l-43 140h-420l-43 -140h160v-268h-651zM535 1700l141 196l268 -368l-176 -90zM641 653h268l-135 443z" />
<glyph unicode="&#xc1;" horiz-adv-x="1685" d="M31 0v268h139l276 899h-84v265h787l362 -1164h144v-268h-821v268h194l-43 140h-420l-43 -140h160v-268h-651zM596 1528l176 -90l234 262l-142 196zM641 653h268l-135 443z" />
<glyph unicode="&#xc2;" horiz-adv-x="1685" d="M31 0v268h139l276 899h-84v265h787l362 -1164h144v-268h-821v268h194l-43 140h-420l-43 -140h160v-268h-651zM369 1536l176 -90l233 166l240 -148l127 107l-303 229h-144zM641 653h268l-135 443z" />
<glyph unicode="&#xc3;" horiz-adv-x="1685" d="M31 0v268h139l276 899h-84v265h787l362 -1164h144v-268h-821v268h194l-43 140h-420l-43 -140h160v-268h-651zM360 1470q57 55 164 70.5t221 -27.5q94 -43 236.5 -38.5t169.5 59.5v205q-143 -129 -356 -37q-113 55 -243 51t-192 -59v-224zM641 653h268l-135 443z" />
<glyph unicode="&#xc4;" horiz-adv-x="1685" d="M31 0v268h139l276 899h-84v265h787l362 -1164h144v-268h-821v268h194l-43 140h-420l-43 -140h160v-268h-651zM508 1485v172h192v-172h-192zM641 653h268l-135 443zM836 1485v172h192v-172h-192z" />
<glyph unicode="&#xc5;" horiz-adv-x="1685" d="M31 0v268h139l276 899h-84v265h787l362 -1164h144v-268h-821v268h194l-43 140h-420l-43 -140h160v-268h-651zM641 653h268l-135 443z" />
<glyph unicode="&#xc6;" horiz-adv-x="2181" d="M23 0v268h139l563 899h-84v265h1518v-453h-355v182h-327v-282h389v-273h-389v-334h327v191h355v-463h-1235v272h129v136h-455l-84 -140h160v-268h-651zM743 653h310v443z" />
<glyph unicode="&#xc7;" horiz-adv-x="1404" d="M31 702q0 168 59.5 314.5t151.5 240t200.5 146.5t210.5 53q211 0 316 -139l47 115h321v-582h-366q-4 109 -59.5 183.5t-157.5 74.5q-109 0 -176.5 -117t-67.5 -289q0 -162 80 -273.5t219 -111.5q31 0 62.5 8.5t58 20.5t53.5 29.5t46.5 34t40 36t30.5 31.5t22 27l13 14 l239 -262q-262 -289 -620 -289q-328 0 -525.5 197.5t-197.5 537.5zM600 -383l18 -4q18 -4 48 -7t67 -4t75 8t71.5 26.5t59.5 56.5t34 94q10 78 -16.5 110.5t-72.5 28.5t-96 -8l27 64h-125l-57 -191q104 47 190 45q74 -2 54 -59q-23 -57 -104 -74.5t-157 23.5z" />
<glyph unicode="&#xc8;" horiz-adv-x="1337" d="M51 0v272h129v889h-129v271h1235v-453h-354v182h-328v-282h389v-273h-389v-334h328v191h354v-463h-1235zM453 1706l141 197l268 -369l-176 -90z" />
<glyph unicode="&#xc9;" horiz-adv-x="1337" d="M51 0v272h129v889h-129v271h1235v-453h-354v182h-328v-282h389v-273h-389v-334h328v191h354v-463h-1235zM465 1536l176 -90l233 262l-141 197z" />
<glyph unicode="&#xca;" horiz-adv-x="1337" d="M51 0v272h129v889h-129v271h1235v-453h-354v182h-328v-282h389v-273h-389v-334h328v191h354v-463h-1235zM328 1536l176 -90l233 166l240 -148l127 107l-303 229h-144z" />
<glyph unicode="&#xcb;" horiz-adv-x="1275" d="M51 0v272h129v889h-129v271h1235v-453h-354v182h-328v-282h389v-273h-389v-334h328v191h354v-463h-1235zM406 1485v172h192v-172h-192zM733 1485v172h193v-172h-193z" />
<glyph unicode="&#xcc;" horiz-adv-x="782" d="M51 0v272h129v889h-129v271h680v-271h-127v-889h127v-272h-680zM158 1708l141 197l268 -369l-176 -90z" />
<glyph unicode="&#xcd;" horiz-adv-x="782" d="M51 0v272h129v889h-129v271h680v-271h-127v-889h127v-272h-680zM219 1536l176 -90l234 262l-142 197z" />
<glyph unicode="&#xce;" horiz-adv-x="782" d="M-20 1536l176 -90l233 166l240 -148l127 107l-303 229h-144zM51 0v272h129v889h-129v271h680v-271h-127v-889h127v-272h-680z" />
<glyph unicode="&#xcf;" horiz-adv-x="782" d="M51 0v272h129v889h-129v271h680v-271h-127v-889h127v-272h-680zM121 1505v172h192v-172h-192zM449 1505v172h192v-172h-192z" />
<glyph unicode="&#xd1;" horiz-adv-x="1671" d="M51 0v264h121v903h-119v265h588l502 -752v487h-139v265h616v-265h-135v-1167h-441l-522 780v-516h158v-264h-629zM428 1470q57 55 163.5 70.5t221.5 -27.5q94 -43 238.5 -38.5t191.5 59.5v205q-63 -57 -160.5 -70.5t-220.5 33.5q-113 55 -243 51t-191 -59v-224z" />
<glyph unicode="&#xd2;" horiz-adv-x="1515" d="M31 723q0 332 200.5 539.5t518.5 207.5q367 0 551 -202.5t184 -558.5q0 -350 -188.5 -548t-532.5 -198q-334 0 -533.5 193.5t-199.5 566.5zM516 1735l141 196l269 -368l-176 -90zM537 723q0 -199 63.5 -318.5t163.5 -119.5q96 0 152.5 115.5t56.5 308.5 q0 199 -56.5 322.5t-168.5 123.5q-94 2 -152.5 -120t-58.5 -312z" />
<glyph unicode="&#xd3;" horiz-adv-x="1515" d="M31 723q0 332 200.5 539.5t518.5 207.5q367 0 551 -202.5t184 -558.5q0 -350 -188.5 -548t-532.5 -198q-334 0 -533.5 193.5t-199.5 566.5zM537 723q0 -199 63.5 -318.5t163.5 -119.5q96 0 152.5 115.5t56.5 308.5q0 199 -56.5 322.5t-168.5 123.5q-94 2 -152.5 -120 t-58.5 -312zM573 1567l177 -90l233 262l-141 196z" />
<glyph unicode="&#xd4;" horiz-adv-x="1515" d="M31 723q0 332 200.5 539.5t518.5 207.5q367 0 551 -202.5t184 -558.5q0 -350 -188.5 -548t-532.5 -198q-334 0 -533.5 193.5t-199.5 566.5zM348 1556l176 -90l234 166l239 -147l127 106l-303 230h-143zM537 723q0 -199 63.5 -318.5t163.5 -119.5q96 0 152.5 115.5 t56.5 308.5q0 199 -56.5 322.5t-168.5 123.5q-94 2 -152.5 -120t-58.5 -312z" />
<glyph unicode="&#xd5;" horiz-adv-x="1515" d="M342 1596q57 55 163.5 70.5t221.5 -27.5q92 -45 234.5 -44t195.5 64v223q-47 -57 -152.5 -78.5t-228.5 23.5q-113 55 -243 51t-191 -59v-223zM31 723q0 332 200.5 539.5t518.5 207.5q367 0 551 -202.5t184 -558.5q0 -350 -188.5 -548t-532.5 -198q-334 0 -533.5 193.5 t-199.5 566.5zM537 723q0 -199 63.5 -318.5t163.5 -119.5q96 0 152.5 115.5t56.5 308.5q0 199 -56.5 322.5t-168.5 123.5h-4q-92 0 -149 -120q-58 -122 -58 -312z" />
<glyph unicode="&#xd6;" horiz-adv-x="1515" d="M31 723q0 332 200.5 539.5t518.5 207.5q367 0 551 -202.5t184 -558.5q0 -350 -188.5 -548t-532.5 -198q-334 0 -533.5 193.5t-199.5 566.5zM487 1526v172h193v-172h-193zM537 723q0 -199 63.5 -318.5t163.5 -119.5q96 0 152.5 115.5t56.5 308.5q0 199 -56.5 322.5 t-168.5 123.5q-94 2 -152.5 -120t-58.5 -312zM815 1526v172h193v-172h-193z" />
<glyph unicode="&#xd7;" d="M152 195l294 294l-294 293l192 193l295 -293l293 293l192 -193l-293 -293l293 -294l-192 -193l-293 295l-295 -295z" />
<glyph unicode="&#xd9;" horiz-adv-x="1509" d="M31 1165v267h651v-265h-111v-442q0 -233 49.5 -316t155.5 -83q70 0 111 25.5t68.5 116.5t27.5 259v434h-111v271h607v-265h-111v-497q0 -705 -588 -705q-635 18 -635 694v506h-114zM555 1706l141 197l269 -369l-177 -90z" />
<glyph unicode="&#xda;" horiz-adv-x="1509" d="M31 1165v267h651v-265h-111v-442q0 -233 49.5 -316t155.5 -83q70 0 111 25.5t68.5 116.5t27.5 259v434h-111v271h607v-265h-111v-497q0 -705 -588 -705q-635 18 -635 694v506h-114zM596 1534l176 -90l234 262l-142 197z" />
<glyph unicode="&#xdb;" horiz-adv-x="1509" d="M31 1165v267h651v-265h-111v-442q0 -233 49.5 -316t155.5 -83q70 0 111 25.5t68.5 116.5t27.5 259v434h-111v271h607v-265h-111v-497q0 -705 -588 -705q-635 18 -635 694v506h-114zM369 1536l176 -90l233 166l240 -148l127 107l-303 229h-144z" />
<glyph unicode="&#xdc;" horiz-adv-x="1509" d="M31 1165v267h651v-265h-111v-442q0 -233 49.5 -316t155.5 -83q70 0 111 25.5t68.5 116.5t27.5 259v434h-111v271h607v-265h-111v-497q0 -705 -588 -705q-635 18 -635 694v506h-114zM489 1485v172h193v-172h-193zM870 1485v172h193v-172h-193z" />
<glyph unicode="&#xe0;" horiz-adv-x="1228" d="M31 303q0 170 124 273.5t302 103.5q55 0 103 -16.5t69.5 -31t29.5 -24.5v72q0 115 -194 115q-135 0 -305 -95l-86 238q242 145 446 145h39l-229 256l141 197l268 -369l-166 -86q94 -4 178.5 -27.5t160 -70.5t119.5 -129t44 -192v-400h123v-262h-438l-49 92 q-51 -70 -129 -100.5t-148 -30.5q-162 0 -282.5 88t-120.5 254zM420 324q0 -43 30.5 -70t77.5 -27q43 0 79 20.5t52 47.5v78q-35 59 -120 59q-119 1 -119 -108z" />
<glyph unicode="&#xe1;" horiz-adv-x="1228" d="M31 303q0 170 124 273.5t302 103.5q55 0 103 -16.5t69.5 -31t29.5 -24.5v72q0 115 -194 115q-135 0 -305 -95l-86 238q242 145 446 145q100 0 191.5 -20.5t176.5 -65.5t136 -132t51 -203v-400h123v-262h-438l-49 92q-51 -70 -129 -100.5t-148 -30.5q-162 0 -282.5 88 t-120.5 254zM391 1167l176 -90l234 262l-142 197zM420 324q0 -43 30.5 -70t77.5 -27q43 0 79 20.5t52 47.5v78q-35 59 -120 59q-119 1 -119 -108z" />
<glyph unicode="&#xe2;" horiz-adv-x="1228" d="M31 303q0 170 124 273.5t302 103.5q55 0 103 -16.5t69.5 -31t29.5 -24.5v72q0 115 -194 115q-135 0 -305 -95l-86 238q242 145 446 145q100 0 191.5 -20.5t176.5 -65.5t136 -132t51 -203v-400h123v-262h-438l-49 92q-51 -70 -129 -100.5t-148 -30.5q-162 0 -282.5 88 t-120.5 254zM106 1167l177 -90l233 166l240 -147l127 106l-303 230h-144zM420 324q0 -43 30.5 -70t77.5 -27q43 0 79 20.5t52 47.5v78q-35 59 -120 59q-119 1 -119 -108z" />
<glyph unicode="&#xe3;" horiz-adv-x="1228" d="M31 303q0 170 124 273.5t302 103.5q55 0 103 -16.5t69.5 -31t29.5 -24.5v72q0 115 -194 115q-135 0 -305 -95l-86 238q242 145 446 145q100 0 191.5 -20.5t176.5 -65.5t136 -132t51 -203v-400h123v-262h-438l-49 92q-51 -70 -129 -100.5t-148 -30.5q-162 0 -282.5 88 t-120.5 254zM162 1143q57 55 163.5 70.5t221.5 -27.5q94 -43 238.5 -39t191.5 59v205q-63 -57 -160.5 -70.5t-220.5 33.5q-113 55 -243 51t-191 -59v-223zM420 324q0 -43 30.5 -70t77.5 -27q43 0 79 20.5t52 47.5v78q-35 59 -120 59q-119 1 -119 -108z" />
<glyph unicode="&#xe4;" horiz-adv-x="1228" d="M31 303q0 170 124 273.5t302 103.5q55 0 103 -16.5t69.5 -31t29.5 -24.5v72q0 115 -194 115q-135 0 -305 -95l-86 238q242 145 446 145q100 0 191.5 -20.5t176.5 -65.5t136 -132t51 -203v-400h123v-262h-438l-49 92q-51 -70 -129 -100.5t-148 -30.5q-162 0 -282.5 88 t-120.5 254zM260 1198v172h193v-172h-193zM420 324q0 -43 30.5 -70t77.5 -27q43 0 79 20.5t52 47.5v78q-35 59 -120 59q-119 1 -119 -108zM588 1198v172h192v-172h-192z" />
<glyph unicode="&#xe5;" horiz-adv-x="1228" d="M31 303q0 170 124 273.5t302 103.5q55 0 103 -16.5t69.5 -31t29.5 -24.5v72q0 115 -194 115q-135 0 -305 -95l-86 238q242 145 446 145q100 0 191.5 -20.5t176.5 -65.5t136 -132t51 -203v-400h123v-262h-438l-49 92q-51 -70 -129 -100.5t-148 -30.5q-162 0 -282.5 88 t-120.5 254zM420 324q0 -43 30.5 -70t77.5 -27q43 0 79 20.5t52 47.5v78q-35 59 -120 59q-119 1 -119 -108z" />
<glyph unicode="&#xe6;" horiz-adv-x="1912" d="M31 303q0 170 124 273.5t302 103.5q55 0 103 -16.5t69.5 -31t29.5 -24.5v72q0 115 -194 115q-135 0 -305 -95l-86 238q242 145 446 145q315 0 463 -161q154 131 381 131q180 0 312 -83t177 -214q23 -66 28 -156t-23 -190h-646q6 -31 14.5 -51.5t30 -52.5t64.5 -48 t102 -16q168 0 287 98l172 -199q-207 -178 -528 -178q-129 0 -247 53.5t-194 159.5q-84 -215 -479 -215q-162 0 -282.5 88t-120.5 254zM420 324q0 -43 30.5 -70t77.5 -27q43 0 79 20.5t52 47.5v78q-35 59 -120 59q-119 1 -119 -108zM1219 612h309q-2 74 -33 119t-119 45 q-82 0 -117.5 -53.5t-39.5 -110.5z" />
<glyph unicode="&#xe7;" horiz-adv-x="1087" d="M2 518q0 256 145.5 390t358.5 134q158 0 256 -116l35 98h241v-463h-301q-4 88 -34.5 151.5t-94.5 63.5q-86 0 -133 -76.5t-47 -185.5q0 -102 57.5 -171t153.5 -71q139 -2 248 117l180 -209q-76 -82 -203 -142.5t-274 -66.5l-17 -43q43 4 83 8.5t62.5 -25.5t14.5 -95 q-10 -66 -47 -104t-83 -47t-89 -8t-74 7l-30 6l16 92q66 -33 136.5 -18.5t86.5 61.5q18 53 -53 54q-68 -2 -158 -39l47 155q-211 25 -347 165t-136 378z" />
<glyph unicode="&#xe8;" horiz-adv-x="1110" d="M10 518q0 246 156 390.5t395 144.5q180 0 312.5 -83t177.5 -214q23 -66 27.5 -156t-23.5 -190h-645q6 -31 14 -51.5t29.5 -52.5t64.5 -48t103 -16q168 0 286 98l172 -199q-207 -178 -528 -178q-215 0 -378 141.5t-163 413.5zM330 1339l141 197l268 -369l-176 -90z M416 612h309q-2 74 -32.5 119t-119.5 45q-82 0 -117.5 -53.5t-39.5 -110.5z" />
<glyph unicode="&#xe9;" horiz-adv-x="1110" d="M10 518q0 246 156 390.5t395 144.5q180 0 312.5 -83t177.5 -214q23 -66 27.5 -156t-23.5 -190h-645q6 -31 14 -51.5t29.5 -52.5t64.5 -48t103 -16q168 0 286 98l172 -199q-207 -178 -528 -178q-215 0 -378 141.5t-163 413.5zM383 1167l176 -90l234 262l-142 197zM416 612 h309q-2 74 -32.5 119t-119.5 45q-82 0 -117.5 -53.5t-39.5 -110.5z" />
<glyph unicode="&#xea;" horiz-adv-x="1110" d="M10 518q0 246 156 390.5t395 144.5q180 0 312.5 -83t177.5 -214q23 -66 27.5 -156t-23.5 -190h-645q6 -31 14 -51.5t29.5 -52.5t64.5 -48t103 -16q168 0 286 98l172 -199q-207 -178 -528 -178q-215 0 -378 141.5t-163 413.5zM158 1167l176 -90l233 166l240 -147l127 106 l-303 230h-144zM416 612h309q-2 74 -32.5 119t-119.5 45q-82 0 -117.5 -53.5t-39.5 -110.5z" />
<glyph unicode="&#xeb;" horiz-adv-x="1110" d="M10 518q0 246 156 390.5t395 144.5q180 0 312.5 -83t177.5 -214q23 -66 27.5 -156t-23.5 -190h-645q6 -31 14 -51.5t29.5 -52.5t64.5 -48t103 -16q168 0 286 98l172 -199q-207 -178 -528 -178q-215 0 -378 141.5t-163 413.5zM299 1198v172h193v-172h-193zM416 612h309 q-2 74 -32.5 119t-119.5 45q-82 0 -117.5 -53.5t-39.5 -110.5zM627 1198v172h192v-172h-192z" />
<glyph unicode="&#xec;" horiz-adv-x="675" d="M51 0v268h86v490h-86v266h475v-756h99v-268h-574zM104 1339l142 197l268 -369l-176 -90z" />
<glyph unicode="&#xed;" horiz-adv-x="675" d="M51 0v268h86v490h-86v266h475v-756h99v-268h-574zM137 1167l176 -90l234 262l-141 197z" />
<glyph unicode="&#xee;" horiz-adv-x="675" d="M-102 1167l176 -90l233 166l240 -147l127 106l-303 230h-144zM51 0v268h86v490h-86v266h475v-756h99v-268h-574z" />
<glyph unicode="&#xef;" horiz-adv-x="675" d="M51 0v268h86v490h-86v266h475v-756h99v-268h-574zM53 1198v172h193v-172h-193zM334 1198v172h192v-172h-192z" />
<glyph unicode="&#xf1;" horiz-adv-x="1325" d="M51 0v268h86v490h-86v266h436l48 -127q119 164 292 164q92 0 161 -26.5t108 -68.5t62.5 -104.5t31.5 -121t8 -130.5v-342h96v-268h-516v559v48q0 11 -5 47t-16.5 50.5t-35 30t-57.5 15.5q-129 0 -129 -191v-291h147v-268h-631zM244 1143q57 55 163.5 70.5t221.5 -27.5 q94 -43 238.5 -39t191.5 59v205q-63 -57 -160.5 -70.5t-220.5 33.5q-113 55 -243 51t-191 -59v-223z" />
<glyph unicode="&#xf2;" horiz-adv-x="1175" d="M23 516q2 244 168.5 388.5t392.5 144.5q250 -4 407.5 -147.5t161.5 -393.5q2 -248 -157.5 -391.5t-401.5 -143.5q-238 0 -405.5 142.5t-165.5 400.5zM348 1315l141 196l269 -368l-176 -90zM442 514q0 -125 43 -201.5t109 -76.5q63 0 101 76.5t38 195.5t-40 195.5 t-109 78.5q-59 0 -100.5 -77.5t-41.5 -190.5z" />
<glyph unicode="&#xf3;" horiz-adv-x="1175" d="M23 516q2 244 168.5 388.5t392.5 144.5q250 -4 407.5 -147.5t161.5 -393.5q2 -248 -157.5 -391.5t-401.5 -143.5q-238 0 -405.5 142.5t-165.5 400.5zM410 1143l176 -90l233 262l-141 196zM442 514q0 -125 43 -201.5t109 -76.5q63 0 101 76.5t38 195.5t-40 195.5 t-109 78.5q-59 0 -100.5 -77.5t-41.5 -190.5z" />
<glyph unicode="&#xf4;" horiz-adv-x="1175" d="M23 516q2 244 168.5 388.5t392.5 144.5q250 -4 407.5 -147.5t161.5 -393.5q2 -248 -157.5 -391.5t-401.5 -143.5q-238 0 -405.5 142.5t-165.5 400.5zM174 1167l176 -90l234 166l239 -147l127 106l-303 230h-143zM442 514q0 -125 43 -201.5t109 -76.5q63 0 101 76.5 t38 195.5t-40 195.5t-109 78.5q-59 0 -100.5 -77.5t-41.5 -190.5z" />
<glyph unicode="&#xf5;" horiz-adv-x="1175" d="M176 1174q57 55 163.5 70.5t221.5 -27.5q92 -45 234.5 -44t195.5 64v223q-47 -57 -152.5 -78.5t-228.5 23.5q-113 55 -243 51t-191 -59v-223zM191 904q167 144 393 145q250 -4 407.5 -147.5t161.5 -393.5v-6q0 -243 -158 -385q-160 -143 -401 -144q-238 0 -406 143 q-166 141 -165 394q-1 248 168 394zM442 514q0 -125 43 -201.5t109 -76.5q63 0 101 76.5t38 195.5t-40 195.5t-109 78.5q-59 0 -100.5 -77.5t-41.5 -190.5z" />
<glyph unicode="&#xf6;" horiz-adv-x="1175" d="M23 516q2 244 168.5 388.5t392.5 144.5q250 -4 407.5 -147.5t161.5 -393.5q2 -248 -157.5 -391.5t-401.5 -143.5q-238 0 -405.5 142.5t-165.5 400.5zM324 1198v172h192v-172h-192zM442 514q0 -125 43 -201.5t109 -76.5q63 0 101 76.5t38 195.5t-40 195.5t-109 78.5 q-59 0 -100.5 -77.5t-41.5 -190.5zM651 1198v172h193v-172h-193z" />
<glyph unicode="&#xf7;" d="M86 516v111h1104v-111h-1104zM420 221q0 86 62.5 158t164.5 72q104 0 168 -73t64 -157q0 -92 -64.5 -154.5t-167.5 -62.5q-96 0 -161.5 66.5t-65.5 150.5zM420 913q0 86 62.5 158t164.5 72q104 0 168 -73t64 -157q0 -94 -62.5 -155.5t-169.5 -61.5q-92 0 -159.5 67.5 t-67.5 149.5z" />
<glyph unicode="&#xf9;" d="M31 754v270h495v-494q0 -135 24.5 -196.5t86.5 -61.5q55 0 92 44t37 112v326h-135v270h530v-752h101v-272h-388l-55 129l-20 -23q-20 -25 -27.5 -31.5t-30 -28t-41 -30t-45 -21.5t-58.5 -18.5t-69 -5.5q-227 0 -319 119t-92 381v283h-86zM330 1339l141 197l268 -369 l-176 -90z" />
<glyph unicode="&#xfa;" d="M31 754v270h495v-494q0 -135 24.5 -196.5t86.5 -61.5q55 0 92 44t37 112v326h-135v270h530v-752h101v-272h-388l-55 129l-20 -23q-20 -25 -27.5 -31.5t-30 -28t-41 -30t-45 -21.5t-58.5 -18.5t-69 -5.5q-227 0 -319 119t-92 381v283h-86zM412 1167l176 -90l233 262 l-141 197z" />
<glyph unicode="&#xfb;" d="M31 754v270h495v-494q0 -135 24.5 -196.5t86.5 -61.5q55 0 92 44t37 112v326h-135v270h530v-752h101v-272h-388l-55 129l-20 -23q-20 -25 -27.5 -31.5t-30 -28t-41 -30t-45 -21.5t-58.5 -18.5t-69 -5.5q-227 0 -319 119t-92 381v283h-86zM178 1167l176 -90l234 166 l239 -147l127 106l-303 230h-143z" />
<glyph unicode="&#xfc;" d="M31 754v270h495v-494q0 -135 24.5 -196.5t86.5 -61.5q55 0 92 44t37 112v326h-135v270h530v-752h101v-272h-388l-55 129l-20 -23q-20 -25 -27.5 -31.5t-30 -28t-41 -30t-45 -21.5t-58.5 -18.5t-69 -5.5q-227 0 -319 119t-92 381v283h-86zM299 1198v172h193v-172h-193z M627 1198v172h192v-172h-192z" />
<glyph unicode="&#x152;" horiz-adv-x="2181" d="M-72 723q0 315 190.5 514t493.5 199q242 0 408 -99v95h1235v-453h-354v182h-328v-282h389v-273h-389v-334h328v191h354v-463h-1235v96q-162 -98 -393 -98q-317 0 -508 185.5t-191 539.5zM410 723q0 -188 61 -303t156 -115q92 0 145 110.5t53 293.5q0 188 -53 308 t-162 120q-88 0 -144 -116t-56 -298z" />
<glyph unicode="&#x153;" horiz-adv-x="1916" d="M31 516q2 244 169 388.5t392 144.5q238 -4 391 -131q152 135 385 135q180 0 312 -83t178 -214q23 -66 27.5 -156t-23.5 -190h-645q6 -31 14 -51.5t29.5 -52.5t64.5 -48t102 -16q168 0 287 98l172 -199q-207 -178 -528 -178q-221 0 -373 137q-152 -127 -383 -127 q-238 0 -405.5 142.5t-165.5 400.5zM451 514q0 -125 43 -201.5t108 -76.5q63 0 101 76.5t38 195.5t-39.5 195.5t-109.5 78.5q-59 0 -100 -77.5t-41 -190.5zM1223 612h309q-2 74 -33 119t-119 45q-82 0 -117.5 -53.5t-39.5 -110.5z" />
<glyph unicode="&#x2da;" horiz-adv-x="1705" />
<glyph unicode="&#x2dc;" horiz-adv-x="512" d="M-408 125q57 55 163.5 70.5t221.5 -27.5q92 -45 234.5 -44t195.5 64v223q-47 -57 -152.5 -78.5t-228.5 23.5q-113 55 -243 51t-191 -59v-223z" />
<glyph unicode="&#x2000;" horiz-adv-x="966" />
<glyph unicode="&#x2001;" horiz-adv-x="1935" />
<glyph unicode="&#x2002;" horiz-adv-x="966" />
<glyph unicode="&#x2003;" horiz-adv-x="1935" />
<glyph unicode="&#x2004;" horiz-adv-x="645" />
<glyph unicode="&#x2005;" horiz-adv-x="483" />
<glyph unicode="&#x2006;" horiz-adv-x="321" />
<glyph unicode="&#x2007;" horiz-adv-x="321" />
<glyph unicode="&#x2008;" horiz-adv-x="241" />
<glyph unicode="&#x2009;" horiz-adv-x="387" />
<glyph unicode="&#x200a;" horiz-adv-x="106" />
<glyph unicode="&#x2010;" horiz-adv-x="790" d="M96 352v273h594v-273h-594z" />
<glyph unicode="&#x2011;" horiz-adv-x="790" d="M96 352v273h594v-273h-594z" />
<glyph unicode="&#x2012;" horiz-adv-x="790" d="M96 352v273h594v-273h-594z" />
<glyph unicode="&#x2013;" horiz-adv-x="915" d="M66 352v273h772v-273h-772z" />
<glyph unicode="&#x2014;" d="M86 352v273h1104v-273h-1104z" />
<glyph unicode="&#x2018;" horiz-adv-x="628" d="M31 848q-6 195 82 376t249 324l236 -133q-115 -145 -162 -294.5t-33 -370.5z" />
<glyph unicode="&#x2019;" horiz-adv-x="628" d="M31 883q115 145 162 294.5t32 370.5l373 -98q6 -195 -82 -376t-250 -324z" />
<glyph unicode="&#x201c;" horiz-adv-x="1062" d="M4 848q-6 195 82 376t250 324l235 -133q-115 -145 -162 -294.5t-32 -370.5zM496 848q-6 195 82 376t249 324l236 -133q-115 -145 -162 -294.5t-33 -370.5z" />
<glyph unicode="&#x201d;" horiz-adv-x="1062" d="M4 883q115 145 162 294.5t33 370.5l372 -98q6 -195 -82 -376t-249 -324zM496 883q115 145 162 294.5t32 370.5l373 -98q6 -195 -82 -376t-250 -324z" />
<glyph unicode="&#x2022;" horiz-adv-x="712" d="M123 659q0 86 63.5 160t168 74t170 -74t65.5 -160q0 -96 -62.5 -158.5t-173.5 -62.5q-98 0 -164.5 67.5t-66.5 153.5z" />
<glyph unicode="&#x2026;" horiz-adv-x="2048" d="M238 213q0 86 63.5 159.5t167.5 73.5t170 -73.5t66 -159.5q0 -96 -62.5 -158.5t-173.5 -62.5q-98 0 -164.5 67.5t-66.5 153.5zM791 213q0 86 63.5 159.5t167.5 73.5t169.5 -73.5t65.5 -159.5q0 -96 -62 -158.5t-173 -62.5q-98 0 -164.5 67.5t-66.5 153.5zM1343 213 q0 86 63.5 159.5t168 73.5t170 -73.5t65.5 -159.5q0 -96 -62 -158.5t-173 -62.5q-98 0 -165 67.5t-67 153.5z" />
<glyph unicode="&#x202f;" horiz-adv-x="387" />
<glyph unicode="&#x2039;" horiz-adv-x="1064" d="M143 430l660 -307l78 213l-506 227l506 232l-125 229l-613 -307v-287z" />
<glyph unicode="&#x203a;" horiz-adv-x="1064" d="M143 336l506 227l-506 232l125 229l613 -307v-287l-660 -307z" />
<glyph unicode="&#x205f;" horiz-adv-x="483" />
<glyph unicode="&#x20ac;" horiz-adv-x="1638" d="M2 530l49 142h164v30v33h-141l49 142h108q49 258 224.5 418.5t388.5 160.5q70 0 130 -11t98 -25.5t71 -37t48 -38t31.5 -36t20.5 -24.5l43 148h305v-605h-366q-4 121 -72 190.5t-162 69.5q-84 0 -150.5 -57t-101.5 -153h383l-49 -142h-362v-33v-30h340l-50 -142h-264 q33 -94 98.5 -149t155.5 -55q139 0 197 100h411v-426h-348l-63 129q-37 -61 -127 -104t-203 -43q-236 0 -407.5 147t-219.5 401h-229z" />
<glyph unicode="&#x2122;" horiz-adv-x="3500" d="M1487 0v264h111v903h-109v265h776l207 -766l197 766h780v-265h-112v-901h112v-266h-647v266h115v684v121h-8q-35 -190 -60 -274l-215 -797h-428l-229 817q-35 119 -43 254h-9v-807h117v-264h-555zM31 899v533h1374v-533h-301v262h-172v-889h170v-272h-762v272h168v889 h-176v-262h-301z" />
<glyph unicode="&#xe000;" horiz-adv-x="1025" d="M0 1025h1025v-1025h-1025v1025z" />
<glyph unicode="&#xfb01;" horiz-adv-x="1466" d="M842 0v268h86v490h-86v266h475v-756h99v-268h-574zM900 1323q0 78 60 143.5t160.5 65.5t163 -65.5t62.5 -143.5q0 -88 -60.5 -147.5t-164.5 -59.5q-92 0 -156.5 64.5t-64.5 142.5zM51 758v266h84v174q0 43 6 84t31 97.5t66 96.5t119.5 68.5t183.5 28.5q80 0 170 -15.5 t131 -35.5l-123 -236q-45 20 -113 21q-66 0 -65 -109v-174h186v-266h-186v-490h123v-268h-611v268h82v490h-84z" />
<glyph unicode="&#xfb02;" horiz-adv-x="1470" d="M842 0v268h88v1004h-86v264h475v-1268h121v-268h-598zM51 758v266h84v174q0 43 6 84t31 97.5t66 96.5t119.5 68.5t183.5 28.5q80 0 170 -15.5t131 -35.5l-123 -236q-45 20 -113 21q-66 0 -65 -109v-174h186v-266h-186v-490h123v-268h-611v268h82v490h-84z" />
<glyph unicode="&#xfb03;" horiz-adv-x="2256" d="M1632 0v268h86v490h-86v266h475v-756h99v-268h-574zM1690 1323q0 78 60 143.5t160.5 65.5t163 -65.5t62.5 -143.5q0 -88 -60.5 -147.5t-164.5 -59.5q-92 0 -156.5 64.5t-64.5 142.5zM842 758v266h84v174q0 43 6 84t31 97.5t66 96.5t119.5 68.5t183.5 28.5q80 0 170 -15.5 t131 -35.5l-123 -236q-45 20 -113 21q-66 0 -65 -109v-174h186v-266h-186v-490h123v-268h-611v268h82v490h-84zM51 758v266h84v174q0 43 6 84t31 97.5t66 96.5t119.5 68.5t183.5 28.5q80 0 170 -15.5t131 -35.5l-123 -236q-45 20 -113 21q-66 0 -65 -109v-174h186v-266h-186 v-490h123v-268h-611v268h82v490h-84z" />
<glyph unicode="&#xfb04;" horiz-adv-x="2260" d="M1632 0v268h88v1004h-86v264h475v-1268h121v-268h-598zM842 758v266h84v174q0 43 6 84t31 97.5t66 96.5t119.5 68.5t183.5 28.5q80 0 170 -15.5t131 -35.5l-123 -236q-45 20 -113 21q-66 0 -65 -109v-174h186v-266h-186v-490h123v-268h-611v268h82v490h-84zM51 758v266 h84v174q0 43 6 84t31 97.5t66 96.5t119.5 68.5t183.5 28.5q80 0 170 -15.5t131 -35.5l-123 -236q-45 20 -113 21q-66 0 -65 -109v-174h186v-266h-186v-490h123v-268h-611v268h82v490h-84z" />
</font>
</defs>
</svg>
